<svg xmlns="http://www.w3.org/2000/svg" viewBox="0 0 600 400">
  <rect width="600" height="400" fill="#7a222b"/>
  <circle cx="510" cy="65" r="115" fill="white" opacity="0.07"/>
  <circle cx="65" cy="345" r="130" fill="white" opacity="0.07"/>

  <!-- Certificate -->
  <g transform="translate(290,190)">
    <rect x="-130" y="-90" width="260" height="180" rx="12" fill="#fefaf3"/>
    <rect x="-108" y="-64" width="216" height="10" rx="5" fill="#e3bcbe"/>
    <line x1="-108" y1="-30" x2="60" y2="-30" stroke="#7a222b" stroke-width="5" stroke-linecap="round" opacity="0.5"/>
    <line x1="-108" y1="-6" x2="90" y2="-6" stroke="#7a222b" stroke-width="5" stroke-linecap="round" opacity="0.35"/>
    <line x1="-108" y1="18" x2="40" y2="18" stroke="#7a222b" stroke-width="5" stroke-linecap="round" opacity="0.35"/>
    <path d="M-108 46 L108 46" stroke="#234132" stroke-width="3" opacity="0.25"/>
  </g>

  <!-- Ribbon seal with checkmark -->
  <g transform="translate(410,270)">
    <path d="M-14 20 L-30 70 L0 52 L30 70 L14 20 Z" fill="#234132"/>
    <circle cx="0" cy="0" r="42" fill="#e3bcbe"/>
    <circle cx="0" cy="0" r="30" fill="#fefaf3"/>
    <path d="M-14 0 l10 12 20 -24" stroke="#38664f" stroke-width="7" stroke-linecap="round" stroke-linejoin="round" fill="none"/>
  </g>
</svg>
