<svg xmlns="http://www.w3.org/2000/svg" viewBox="0 0 800 600">
  <rect width="800" height="600" fill="#234132"/>
  <circle cx="400" cy="300" r="260" fill="#38664f" opacity="0.35"/>
  <g transform="translate(220,190)" fill="none" stroke="white" stroke-width="6" stroke-linecap="round" stroke-linejoin="round">
    <circle cx="60" cy="40" r="34" fill="#7a222b" stroke="white"/>
    <path d="M10 190c0-55 45-90 100-90h-100z" fill="#7a222b" stroke="white"/>
    <path d="M10 190c0-55 45-90 100-90s100 35 100 90" fill="#7a222b" stroke="white"/>
  </g>
  <g transform="translate(380,190)" fill="none" stroke="white" stroke-width="6" stroke-linecap="round" stroke-linejoin="round">
    <circle cx="60" cy="40" r="34" fill="white" stroke="white"/>
    <path d="M10 190c0-55 45-90 100-90s100 35 100 90" fill="white" stroke="white"/>
  </g>
  <g transform="translate(280,300)">
    <rect x="0" y="0" width="240" height="170" rx="14" fill="white"/>
    <rect x="0" y="0" width="120" height="170" rx="14" fill="#e3bcbe"/>
    <line x1="120" y1="10" x2="120" y2="160" stroke="#234132" stroke-width="4"/>
    <path d="M110 90c0-30 -30-30 -30 0 c0 30 30 45 30 45 c0 0 30 -15 30 -45 c0 -30 -30-30 -30 0z" fill="#7a222b"/>
  </g>
</svg>