<svg xmlns="http://www.w3.org/2000/svg" viewBox="0 0 600 400">
  <rect width="600" height="400" fill="#38664f"/>
  <circle cx="500" cy="60" r="120" fill="white" opacity="0.08"/>
  <circle cx="60" cy="360" r="140" fill="white" opacity="0.08"/>

  <!-- Open book -->
  <g transform="translate(300,215)">
    <path d="M0 -60 C -70 -78 -140 -70 -170 -55 L -170 55 C -140 40 -70 48 0 65 Z" fill="#fefaf3"/>
    <path d="M0 -60 C 70 -78 140 -70 170 -55 L 170 55 C 140 40 70 48 0 65 Z" fill="#f3e6d0"/>
    <path d="M0 -60 L 0 65" stroke="#234132" stroke-width="4"/>
    <line x1="-140" y1="-40" x2="-40" y2="-30" stroke="#38664f" stroke-width="5" stroke-linecap="round" opacity="0.55"/>
    <line x1="-140" y1="-15" x2="-40" y2="-6" stroke="#38664f" stroke-width="5" stroke-linecap="round" opacity="0.55"/>
    <line x1="-140" y1="10" x2="-50" y2="18" stroke="#38664f" stroke-width="5" stroke-linecap="round" opacity="0.4"/>
    <line x1="40" y1="-32" x2="140" y2="-44" stroke="#7a222b" stroke-width="5" stroke-linecap="round" opacity="0.4"/>
    <line x1="40" y1="-7" x2="140" y2="-18" stroke="#7a222b" stroke-width="5" stroke-linecap="round" opacity="0.4"/>
    <line x1="50" y1="18" x2="140" y2="9" stroke="#7a222b" stroke-width="5" stroke-linecap="round" opacity="0.3"/>
  </g>

  <!-- Tip stars -->
  <g fill="#e3bcbe">
    <path d="M195 105 l7 15 16 2 -12 11 3 16 -14 -8 -14 8 3 -16 -12 -11 16 -2 z"/>
    <path d="M405 90 l6 12 13 2 -9 9 2 13 -12 -6 -12 6 2 -13 -9 -9 13 -2 z"/>
    <path d="M320 68 l5 10 11 1 -8 7 2 11 -10 -5 -10 5 2 -11 -8 -7 11 -1 z"/>
  </g>
</svg>
